# This file uses centimeters as units for non-parametric coordinates.

mtllib nebula-logo.mtl
g default
v 359.478821 -144.336182 -145.216766
v 367.564972 -160.968811 118.269600
v 350.181152 229.862473 -19.562275
v 361.818756 59.940460 183.455902
v 348.735016 81.826973 -212.697220
v 161.709442 -349.927246 3.968262
v 224.922745 -316.983612 -189.048035
v 235.323380 -224.664734 238.072052
v 0.000003 302.611145 -292.680573
v 0.000003 412.612671 59.257999
v -0.000015 -373.566071 -179.535538
v -0.000001 -253.264130 -320.130432
v 0.000004 107.418533 366.551819
v 212.963989 355.737091 39.612312
v 149.750671 329.407288 159.000137
v 139.350143 341.541962 -184.555450
v 146.741058 -22.781858 -345.090973
v 163.569550 -84.857430 320.791077
v 227.932434 123.413567 317.758972
v 211.103928 170.551819 -327.725189
v 0.000004 -392.556580 135.617462
v -0.000000 -216.980591 321.473999
v 0.000002 279.356201 284.741119
v 0.000000 389.242523 -25.534508
v 0.000002 121.686516 -395.922241
v -359.478821 -144.336151 -145.216751
v -348.735046 81.826988 -212.697250
v -350.181183 229.862411 -19.562277
v -361.818756 59.940430 183.455933
v -367.564941 -160.968765 118.269623
v -235.323395 -224.664780 238.072037
v -161.709457 -349.927246 3.968261
v -224.922791 -316.983643 -189.048035
v -146.741013 -22.781895 -345.091003
v -211.103928 170.551819 -327.725189
v -139.350067 341.541931 -184.555466
v -212.964066 355.737061 39.612312
v -149.750717 329.407288 159.000107
v -227.932419 123.413536 317.758911
v -163.569550 -84.857399 320.791046
vt 0.099106 0.250000
vt 0.221609 0.250000
vt 0.259464 0.368034
vt 0.160357 0.440983
vt 0.061251 0.368034
vt 0.037855 0.440983
vt 0.198213 0.559017
vt 0.099106 0.631966
vt 0.000000 0.559017
vt 0.320715 0.559017
vt 0.358570 0.677051
vt 0.259464 0.750000
vt 0.160357 0.677051
vt 0.358570 0.440983
vt 0.481072 0.440983
vt 0.518928 0.559017
vt 0.419821 0.631966
vt 0.297319 0.250000
vt 0.457677 0.368034
vt 0.740536 0.250000
vt 0.839643 0.322949
vt 0.801787 0.440983
vt 0.679285 0.440983
vt 0.641430 0.322949
vt 0.641430 0.559017
vt 0.740536 0.631966
vt 0.702681 0.750000
vt 0.580179 0.750000
vt 0.839643 0.559017
vt 0.938749 0.631966
vt 0.900894 0.750000
vt 0.778391 0.750000
vt 0.900894 0.368034
vt 1.000000 0.440983
vt 0.962145 0.559017
vt 0.438749 0.309017
vt 0.429285 0.279509
vt 0.660357 0.381966
vt 0.660357 0.500000
vt 0.591877 0.595492
vt 0.198213 0.559017
vt 0.099106 0.631966
vt 0.000000 0.559017
vt 0.037855 0.440983
vt 0.160357 0.440983
vt 0.259464 0.368034
vt 0.358570 0.440983
vt 0.320715 0.559017
vt 0.358570 0.677051
vt 0.259464 0.750000
vt 0.160357 0.677051
vt 0.481072 0.440983
vt 0.580179 0.750000
vt 0.591877 0.595492
vt 0.900894 0.750000
vt 0.778391 0.750000
vt 0.740536 0.631966
vt 0.839643 0.559017
vt 0.938749 0.631966
vt 0.962145 0.559017
vt 0.801787 0.440983
vt 0.900894 0.368034
vt 1.000000 0.440983
vt 0.061251 0.368034
vt 0.099106 0.250000
vt 0.221609 0.250000
vt 0.438749 0.309017
vt 0.457677 0.368034
vt 0.839643 0.322949
vt 0.641430 0.322949
vt 0.740536 0.250000
vt 0.679285 0.440983
vt 0.297319 0.250000
vt 0.429285 0.279509
vt 0.419821 0.250000
vt 0.660357 0.381966
vt 0.660357 0.500000
vt 0.641430 0.559017
vt 0.702681 0.750000
vt 0.518928 0.559017
vt 0.419821 0.631966
vt 0.542323 0.631966
vn 0.998927 0.035004 -0.030323
vn 0.998927 0.035004 -0.030323
vn 0.998927 0.035004 -0.030323
vn 0.998927 0.035004 -0.030323
vn 0.998927 0.035004 -0.030323
vn 0.688541 -0.720848 0.079312
vn 0.688541 -0.720848 0.079312
vn 0.688541 -0.720848 0.079312
vn 0.688541 -0.720848 0.079312
vn 0.688541 -0.720848 0.079312
vn 0.592746 -0.204960 -0.778873
vn 0.592746 -0.204960 -0.778873
vn 0.592746 -0.204960 -0.778873
vn 0.592746 -0.204960 -0.778873
vn 0.592746 -0.204960 -0.778873
vn 0.239602 -0.967003 -0.086576
vn 0.239602 -0.967003 -0.086576
vn 0.239602 -0.967003 -0.086576
vn 0.000000 -0.331905 -0.943313
vn 0.000000 -0.331905 -0.943313
vn 0.000000 -0.331905 -0.943313
vn 0.662505 0.648795 -0.374369
vn 0.662505 0.648795 -0.374369
vn 0.662505 0.648795 -0.374369
vn 0.662505 0.648795 -0.374369
vn 0.662505 0.648795 -0.374369
vn 0.690083 0.573533 0.441412
vn 0.690083 0.573533 0.441412
vn 0.690083 0.573533 0.441412
vn 0.690083 0.573533 0.441412
vn 0.690083 0.573533 0.441412
vn 0.660682 -0.166822 0.731894
vn 0.660682 -0.166822 0.731894
vn 0.660682 -0.166822 0.731894
vn 0.660682 -0.166822 0.731894
vn 0.660682 -0.166822 0.731894
vn 0.209422 -0.976055 -0.058815
vn 0.209422 -0.976055 -0.058815
vn 0.209422 -0.976055 -0.058815
vn 0.212499 -0.051463 0.975805
vn 0.212499 -0.051463 0.975805
vn 0.212499 -0.051463 0.975805
vn 0.271783 0.899438 0.342266
vn 0.271783 0.899438 0.342266
vn 0.271783 0.899438 0.342266
vn 0.463999 -0.833468 0.300061
vn 0.463999 -0.833468 0.300061
vn 0.463999 -0.833468 0.300061
vn 0.300082 -0.366953 0.880509
vn 0.300082 -0.366953 0.880509
vn 0.300082 -0.366953 0.880509
vn -0.000000 0.005169 0.999987
vn -0.000000 0.005169 0.999987
vn -0.000000 0.005169 0.999987
vn 0.000000 -0.231528 0.972828
vn 0.000000 -0.231528 0.972828
vn 0.000000 -0.231528 0.972828
vn 0.214531 -0.710001 0.670727
vn 0.214531 -0.710001 0.670727
vn 0.214531 -0.710001 0.670727
vn 0.161021 0.424051 0.891209
vn 0.161021 0.424051 0.891209
vn 0.161021 0.424051 0.891209
vn 0.348148 0.651570 0.673981
vn 0.348148 0.651570 0.673981
vn 0.348148 0.651570 0.673981
vn 0.226880 0.938913 -0.258779
vn 0.226880 0.938913 -0.258779
vn 0.226880 0.938913 -0.258779
vn 0.191251 0.973619 -0.124457
vn 0.191251 0.973619 -0.124457
vn 0.191251 0.973619 -0.124457
vn 0.318588 0.683550 -0.656705
vn 0.318588 0.683550 -0.656705
vn 0.318588 0.683550 -0.656705
vn 0.311178 -0.018247 -0.950177
vn 0.311178 -0.018247 -0.950177
vn 0.311178 -0.018247 -0.950177
vn 0.163623 0.488939 -0.856835
vn 0.163623 0.488939 -0.856835
vn 0.163623 0.488939 -0.856835
vn 0.161497 -0.749838 -0.641609
vn 0.161497 -0.749838 -0.641609
vn 0.161497 -0.749838 -0.641609
vn 0.397638 -0.345229 -0.850118
vn 0.397638 -0.345229 -0.850118
vn 0.397638 -0.345229 -0.850118
vn -0.000000 -0.107668 -0.994187
vn -0.000000 -0.107668 -0.994187
vn -0.000000 -0.107668 -0.994187
vn -0.998927 0.035003 -0.030323
vn -0.998927 0.035003 -0.030323
vn -0.998927 0.035003 -0.030323
vn -0.998927 0.035003 -0.030323
vn -0.998927 0.035003 -0.030323
vn -0.688541 -0.720848 0.079312
vn -0.688541 -0.720848 0.079312
vn -0.688541 -0.720848 0.079312
vn -0.688541 -0.720848 0.079312
vn -0.688541 -0.720848 0.079312
vn -0.592746 -0.204960 -0.778873
vn -0.592746 -0.204960 -0.778873
vn -0.592746 -0.204960 -0.778873
vn -0.592746 -0.204960 -0.778873
vn -0.592746 -0.204960 -0.778873
vn -0.239602 -0.967004 -0.086576
vn -0.239602 -0.967004 -0.086576
vn -0.239602 -0.967004 -0.086576
vn -0.662505 0.648795 -0.374369
vn -0.662505 0.648795 -0.374369
vn -0.662505 0.648795 -0.374369
vn -0.662505 0.648795 -0.374369
vn -0.662505 0.648795 -0.374369
vn -0.690083 0.573533 0.441412
vn -0.690083 0.573533 0.441412
vn -0.690083 0.573533 0.441412
vn -0.690083 0.573533 0.441412
vn -0.690083 0.573533 0.441412
vn -0.660682 -0.166822 0.731895
vn -0.660682 -0.166822 0.731895
vn -0.660682 -0.166822 0.731895
vn -0.660682 -0.166822 0.731895
vn -0.660682 -0.166822 0.731895
vn -0.209422 -0.976055 -0.058815
vn -0.209422 -0.976055 -0.058815
vn -0.209422 -0.976055 -0.058815
vn -0.212500 -0.051463 0.975805
vn -0.212500 -0.051463 0.975805
vn -0.212500 -0.051463 0.975805
vn -0.271783 0.899438 0.342265
vn -0.271783 0.899438 0.342265
vn -0.271783 0.899438 0.342265
vn -0.463999 -0.833468 0.300061
vn -0.463999 -0.833468 0.300061
vn -0.463999 -0.833468 0.300061
vn -0.300083 -0.366953 0.880509
vn -0.300083 -0.366953 0.880509
vn -0.300083 -0.366953 0.880509
vn -0.214531 -0.710001 0.670727
vn -0.214531 -0.710001 0.670727
vn -0.214531 -0.710001 0.670727
vn -0.161021 0.424051 0.891209
vn -0.161021 0.424051 0.891209
vn -0.161021 0.424051 0.891209
vn -0.348147 0.651569 0.673981
vn -0.348147 0.651569 0.673981
vn -0.348147 0.651569 0.673981
vn -0.000000 0.929100 0.369828
vn -0.000000 0.929100 0.369828
vn -0.000000 0.929100 0.369828
vn -0.000000 0.767892 0.640579
vn -0.000000 0.767892 0.640579
vn -0.000000 0.767892 0.640579
vn -0.226880 0.938914 -0.258778
vn -0.226880 0.938914 -0.258778
vn -0.226880 0.938914 -0.258778
vn -0.191251 0.973619 -0.124458
vn -0.191251 0.973619 -0.124458
vn -0.191251 0.973619 -0.124458
vn -0.000000 0.951234 -0.308471
vn -0.000000 0.951234 -0.308471
vn -0.000000 0.951234 -0.308471
vn -0.000000 0.951234 -0.308471
vn -0.318588 0.683550 -0.656705
vn -0.318588 0.683550 -0.656705
vn -0.318588 0.683550 -0.656705
vn -0.311178 -0.018247 -0.950176
vn -0.311178 -0.018247 -0.950176
vn -0.311178 -0.018247 -0.950176
vn -0.163623 0.488939 -0.856835
vn -0.163623 0.488939 -0.856835
vn -0.163623 0.488939 -0.856835
vn -0.161497 -0.749838 -0.641609
vn -0.161497 -0.749838 -0.641609
vn -0.161497 -0.749838 -0.641609
vn -0.397637 -0.345229 -0.850119
vn -0.397637 -0.345229 -0.850119
vn -0.397637 -0.345229 -0.850119
s off
g nebula group
usemtl initialShadingGroup
f 1/7/1 5/8/2 3/9/3 4/6/4 2/4/5
f 8/3/6 6/14/7 7/10/8 1/7/9 2/4/10
f 1/7/11 7/10/12 17/11/13 20/12/14 5/13/15
f 6/14/16 11/15/17 7/10/18
f 25/40/19 17/28/20 34/53/21
f 5/31/22 20/32/23 16/26/24 14/29/25 3/30/26
f 3/35/27 14/29/28 15/22/29 19/33/30 4/34/31
f 2/4/32 4/5/33 19/1/34 18/2/35 8/3/36
f 6/14/37 21/36/38 11/19/39
f 19/21/40 13/24/41 18/20/42
f 10/23/43 15/22/44 14/29/45
f 8/3/46 21/36/47 6/14/48
f 8/3/49 18/18/50 22/37/51
f 22/37/52 18/18/53 40/73/54
f 18/18/55 13/75/56 40/73/57
f 8/3/58 22/37/59 21/36/60
f 23/38/61 13/24/62 19/21/63
f 15/22/64 23/38/65 19/21/66
f 10/23/67 14/29/68 24/39/69
f 24/39/70 14/29/71 16/26/72
f 20/27/73 9/25/74 16/26/75
f 17/28/76 25/40/77 20/27/78
f 20/27/79 25/40/80 9/25/81
f 7/10/82 11/15/83 12/16/84
f 7/10/85 12/16/86 17/17/87
f 17/28/88 12/82/89 34/53/90
f 26/41/91 30/45/92 29/44/93 28/43/94 27/42/95
f 31/46/96 30/45/97 26/41/98 33/48/99 32/47/100
f 26/41/101 27/51/102 35/50/103 34/49/104 33/48/105
f 32/47/106 33/48/107 11/52/108
f 27/55/109 28/59/110 37/58/111 36/57/112 35/56/113
f 28/60/114 29/63/115 39/62/116 38/61/117 37/58/118
f 30/45/119 31/46/120 40/66/121 39/65/122 29/64/123
f 32/47/124 11/68/125 21/67/126
f 39/69/127 40/71/128 13/70/129
f 10/72/130 37/58/131 38/61/132
f 31/46/133 32/47/134 21/67/135
f 31/46/136 22/74/137 40/73/138
f 31/46/139 21/67/140 22/74/141
f 23/76/142 39/69/143 13/70/144
f 38/61/145 39/69/146 23/76/147
f 15/22/148 38/61/149 23/38/150
f 10/72/151 38/61/152 15/22/153
f 10/72/154 24/77/155 37/58/156
f 24/77/157 36/57/158 37/58/159
f 9/78/160 36/57/161 24/39/162 16/26/163
f 35/79/164 36/57/165 9/78/166
f 34/53/167 35/79/168 25/54/169
f 35/79/170 9/78/171 25/54/172
f 33/48/173 12/80/174 11/52/175
f 33/48/176 34/81/177 12/80/178
